<?xml version="1.0" encoding="UTF-8"?>
<svg xmlns="http://www.w3.org/2000/svg" xmlns:xlink="http://www.w3.org/1999/xlink" width="800" zoomAndPan="magnify" viewBox="0 0 600 599.999999" height="800" preserveAspectRatio="xMidYMid meet" version="1.0">
  <path fill="#200c0c" d="M 300.023438 180.046875 C 233.765625 180.046875 180.046875 233.761719 180.046875 300.023438 C 180.046875 366.285156 233.765625 420 300.023438 420 C 366.28125 420 420 366.28125 420 300.023438 C 420 233.765625 366.28125 180.046875 300.023438 180.046875 Z M 300.023438 180.046875 " fill-opacity="1" fill-rule="nonzero"></path>
  <path fill="#221d1d" d="M 236.546875 367.894531 C 308.546875 367.894531 366.914062 309.527344 366.914062 237.53125 C 366.925781 223.398438 364.695312 209.632812 360.222656 196.226562 C 355.671875 193.578125 350.96875 191.246094 346.109375 189.222656 C 341.25 187.199219 336.28125 185.503906 331.195312 184.140625 C 326.113281 182.773438 320.964844 181.746094 315.746094 181.0625 C 310.527344 180.378906 305.285156 180.039062 300.023438 180.046875 C 233.765625 180.046875 180.046875 233.765625 180.046875 300.023438 C 180.039062 305.445312 180.398438 310.839844 181.125 316.210938 C 181.851562 321.585938 182.9375 326.882812 184.386719 332.105469 C 185.835938 337.328125 187.632812 342.433594 189.773438 347.410156 C 191.917969 352.390625 194.386719 357.203125 197.1875 361.84375 C 209.996094 365.890625 223.117188 367.90625 236.546875 367.894531 Z M 236.546875 367.894531 " fill-opacity="1" fill-rule="nonzero"></path>
  <path fill="#ffffff" d="M 349.546875 349.546875 C 348.929688 350.164062 348.257812 350.714844 347.53125 351.199219 C 346.804688 351.683594 346.039062 352.09375 345.234375 352.425781 C 344.425781 352.761719 343.597656 353.011719 342.742188 353.183594 C 341.882812 353.351562 341.019531 353.4375 340.148438 353.4375 C 339.273438 353.4375 338.410156 353.351562 337.554688 353.183594 C 336.699219 353.011719 335.867188 352.761719 335.0625 352.425781 C 334.253906 352.09375 333.488281 351.683594 332.761719 351.199219 C 332.039062 350.714844 331.367188 350.164062 330.75 349.546875 L 300.023438 318.820312 L 269.296875 349.546875 C 268.679688 350.164062 268.007812 350.714844 267.285156 351.199219 C 266.558594 351.683594 265.792969 352.09375 264.984375 352.425781 C 264.179688 352.761719 263.347656 353.011719 262.492188 353.183594 C 261.636719 353.351562 260.773438 353.4375 259.898438 353.4375 C 259.027344 353.4375 258.164062 353.351562 257.304688 353.183594 C 256.449219 353.011719 255.621094 352.761719 254.8125 352.425781 C 254.007812 352.09375 253.242188 351.683594 252.515625 351.199219 C 251.789062 350.714844 251.117188 350.164062 250.5 349.546875 C 249.882812 348.929688 249.332031 348.257812 248.847656 347.53125 C 248.363281 346.804688 247.953125 346.039062 247.621094 345.234375 C 247.285156 344.425781 247.035156 343.597656 246.863281 342.742188 C 246.695312 341.882812 246.609375 341.019531 246.609375 340.148438 C 246.609375 339.273438 246.695312 338.410156 246.863281 337.554688 C 247.035156 336.699219 247.285156 335.867188 247.621094 335.0625 C 247.953125 334.253906 248.363281 333.488281 248.847656 332.761719 C 249.332031 332.039062 249.882812 331.367188 250.5 330.75 L 281.226562 300.023438 L 250.5 269.296875 C 249.882812 268.679688 249.332031 268.007812 248.847656 267.285156 C 248.363281 266.558594 247.953125 265.792969 247.621094 264.984375 C 247.285156 264.179688 247.035156 263.347656 246.863281 262.492188 C 246.695312 261.636719 246.609375 260.773438 246.609375 259.898438 C 246.609375 259.027344 246.695312 258.164062 246.863281 257.304688 C 247.035156 256.449219 247.285156 255.621094 247.621094 254.8125 C 247.953125 254.007812 248.363281 253.242188 248.847656 252.515625 C 249.332031 251.789062 249.882812 251.117188 250.5 250.5 C 251.117188 249.882812 251.789062 249.332031 252.515625 248.847656 C 253.242188 248.363281 254.007812 247.953125 254.8125 247.621094 C 255.621094 247.285156 256.449219 247.035156 257.304688 246.863281 C 258.164062 246.695312 259.027344 246.609375 259.898438 246.609375 C 260.773438 246.609375 261.636719 246.695312 262.492188 246.863281 C 263.347656 247.035156 264.179688 247.285156 264.984375 247.621094 C 265.792969 247.953125 266.558594 248.363281 267.285156 248.847656 C 268.007812 249.332031 268.679688 249.882812 269.296875 250.5 L 300.023438 281.226562 L 330.75 250.5 C 331.367188 249.882812 332.039062 249.332031 332.761719 248.847656 C 333.488281 248.363281 334.253906 247.953125 335.0625 247.621094 C 335.867188 247.285156 336.699219 247.035156 337.554688 246.863281 C 338.410156 246.695312 339.273438 246.609375 340.148438 246.609375 C 341.019531 246.609375 341.882812 246.695312 342.742188 246.863281 C 343.597656 247.035156 344.425781 247.285156 345.234375 247.621094 C 346.039062 247.953125 346.804688 248.363281 347.53125 248.847656 C 348.257812 249.332031 348.929688 249.882812 349.546875 250.5 C 350.164062 251.117188 350.714844 251.789062 351.199219 252.515625 C 351.683594 253.242188 352.09375 254.007812 352.425781 254.8125 C 352.761719 255.621094 353.011719 256.449219 353.183594 257.304688 C 353.351562 258.164062 353.4375 259.027344 353.4375 259.898438 C 353.4375 260.773438 353.351562 261.636719 353.183594 262.492188 C 353.011719 263.347656 352.761719 264.179688 352.425781 264.984375 C 352.09375 265.792969 351.683594 266.558594 351.199219 267.285156 C 350.714844 268.007812 350.164062 268.679688 349.546875 269.296875 L 318.820312 300.023438 L 349.546875 330.75 C 350.164062 331.367188 350.714844 332.039062 351.199219 332.761719 C 351.683594 333.488281 352.09375 334.253906 352.425781 335.0625 C 352.761719 335.867188 353.011719 336.699219 353.183594 337.554688 C 353.351562 338.410156 353.4375 339.273438 353.4375 340.148438 C 353.4375 341.019531 353.351562 341.882812 353.183594 342.742188 C 353.011719 343.597656 352.761719 344.425781 352.425781 345.234375 C 352.09375 346.039062 351.683594 346.804688 351.199219 347.53125 C 350.714844 348.257812 350.164062 348.929688 349.546875 349.546875 Z M 349.546875 349.546875 " fill-opacity="1" fill-rule="nonzero"></path>
</svg>
